<svg xmlns="http://www.w3.org/2000/svg" width="203.157" height="67.099" viewBox="0 0 203.157 67.099">
  <g id="Group_209" data-name="Group 209" transform="translate(-261.978 -270.668)">
    <g id="Group_198" data-name="Group 198" transform="translate(261.978 270.668)">
      <g id="Group_197" data-name="Group 197" transform="translate(33.703 0)">
        <path id="Path_2670" data-name="Path 2670" d="M330.985,296.1a15.477,15.477,0,0,1-4.135,6.572,25.232,25.232,0,0,1-1.865,1.717c-.56.467-1.151.923-1.766,1.354l-.074-4.529L323,291.962l-.055-3.476a17.793,17.793,0,0,1,5.7,2.061,3.574,3.574,0,0,0-.591,1.988A3.629,3.629,0,0,0,330.985,296.1Z" transform="translate(-322.93 -278.632)" fill="#2680eb" fill-rule="evenodd"/>
        <path id="Path_2671" data-name="Path 2671" d="M391.657,303.992H375.522l5.773,10,1.206,2.086-6.135,7.914H363.977l5.286,9.151-2.677,3.446a3.02,3.02,0,0,1-4.24.548l-4.116-3.194-12.831-9.95-3.114-2.425-5.064-3.926L326.335,309.2l-1.821-1.415a3.03,3.03,0,0,1-1.176-2.344l-.024-1.44v-.006l-.086-5.151c.775-.511,1.52-1.046,2.215-1.606l1.686-1.459a17.926,17.926,0,0,0,5.212-7.642,3.622,3.622,0,0,0,2.96-3.563,2.9,2.9,0,0,0-.049-.572,3.632,3.632,0,0,0-5.821-2.289,21.854,21.854,0,0,0-6.51-2.11,3.007,3.007,0,0,1,2.314-2.862l10.067-2.406h.006l12.954-3.1,1.858-.443a3,3,0,0,1,2.677.51l6.966,5.4,5.821,4.517L369.171,284l12.357,9.588,9.107,7.065A3.025,3.025,0,0,1,391.657,303.992Z" transform="translate(-322.92 -270.668)" fill="#2680eb" fill-rule="evenodd"/>
        <path id="Path_2672" data-name="Path 2672" d="M435.142,347.783,428.164,335.7H444.3Z" transform="translate(-369.959 -299.733)" fill="#2680eb" fill-rule="evenodd"/>
        <path id="Path_2673" data-name="Path 2673" d="M418.77,370.689l-7.1,9.155-5.286-9.155H418.77Z" transform="translate(-360.224 -315.373)" fill="#2680eb" fill-rule="evenodd"/>
        <path id="Path_2674" data-name="Path 2674" d="M437.393,362.2h-7.723l3.3-5.708Z" transform="translate(-370.632 -309.029)" fill="#2680eb" fill-rule="evenodd"/>
      </g>
      <path id="Path_2675" data-name="Path 2675" d="M281.033,309.9a25.606,25.606,0,0,0,14.958-4.482l-.018-1.06a24.187,24.187,0,0,1-14.764,4.728c-8.89-.409-18.241-7.137-17.772-12.666.535-6.305,13.787-10.23,23.286-10.216a49.331,49.331,0,0,1,8.969.9l-.014-.8a1.092,1.092,0,0,1,0-.121,54.213,54.213,0,0,0-8.741-.786c-10.174-.018-24.374,4.189-24.946,10.941C261.494,302.255,271.514,309.462,281.033,309.9Zm20.356-20.738a5.131,5.131,0,0,1,2.395,2.869,5.262,5.262,0,0,1-.047,2.683,3.755,3.755,0,0,0,.693.065,3.553,3.553,0,0,0,.674-.065,5.71,5.71,0,0,0,.107-3.083,5.837,5.837,0,0,0-3.018-3.343A3.61,3.61,0,0,0,301.389,289.166Z" transform="translate(-261.978 -277.25)" fill="#2680eb" fill-rule="evenodd"/>
    </g>
    <g id="Group_199" data-name="Group 199" transform="translate(373.135 270.668)">
      <text id="Tchackim" transform="translate(5.308 54.993)" fill="#2680eb" font-size="20" font-family="SegoeUI, Segoe UI"><tspan x="0" y="0">Tchackim</tspan></text>
      <text id="تشكم" transform="translate(0 27)" fill="#2680eb" font-size="31" font-family="Muslimah-Thin, Muslimah" font-weight="200"><tspan x="0" y="0">تشكم</tspan></text>
    </g>
  </g>
</svg>
